<mxfile host="65bd71144e">
    <diagram id="iW75xdOQpVPAaC8EbHIs" name="main-process">
        <mxGraphModel dx="1343" dy="673" grid="1" gridSize="10" guides="1" tooltips="1" connect="1" arrows="1" fold="1" page="1" pageScale="1" pageWidth="850" pageHeight="1100" math="0" shadow="0">
            <root>
                <mxCell id="0"/>
                <mxCell id="1" parent="0"/>
                <mxCell id="4" value="" style="edgeStyle=none;html=1;" parent="1" source="2" target="3" edge="1">
                    <mxGeometry relative="1" as="geometry"/>
                </mxCell>
                <mxCell id="2" value="&lt;pre&gt;MAIN-RTN.&lt;/pre&gt;" style="rounded=1;whiteSpace=wrap;html=1;arcSize=50;" parent="1" vertex="1">
                    <mxGeometry x="390" y="150" width="100" height="30" as="geometry"/>
                </mxCell>
                <mxCell id="7" value="" style="edgeStyle=none;html=1;" parent="1" source="3" target="6" edge="1">
                    <mxGeometry relative="1" as="geometry"/>
                </mxCell>
                <mxCell id="3" value="&lt;pre&gt;INITIAL-RTN.&lt;/pre&gt;&lt;p align=&quot;center&quot; class=&quot;MsoNormal&quot;&gt;&lt;/p&gt;" style="shape=process;whiteSpace=wrap;html=1;backgroundOutline=1;" parent="1" vertex="1">
                    <mxGeometry x="380" y="230" width="120" height="30" as="geometry"/>
                </mxCell>
                <mxCell id="9" style="edgeStyle=none;html=1;entryX=0.463;entryY=-0.001;entryDx=0;entryDy=0;entryPerimeter=0;" parent="1" source="6" target="8" edge="1">
                    <mxGeometry relative="1" as="geometry">
                        <Array as="points">
                            <mxPoint x="360" y="360"/>
                            <mxPoint x="280" y="360"/>
                        </Array>
                    </mxGeometry>
                </mxCell>
                <mxCell id="17" value="&lt;pre&gt;YES&lt;/pre&gt;" style="edgeLabel;html=1;align=center;verticalAlign=middle;resizable=0;points=[];" parent="9" vertex="1" connectable="0">
                    <mxGeometry x="-0.463" y="1" relative="1" as="geometry">
                        <mxPoint as="offset"/>
                    </mxGeometry>
                </mxCell>
                <mxCell id="11" style="edgeStyle=none;html=1;exitX=1;exitY=0.5;exitDx=0;exitDy=0;entryX=0.5;entryY=0;entryDx=0;entryDy=0;" parent="1" source="6" target="10" edge="1">
                    <mxGeometry relative="1" as="geometry">
                        <Array as="points">
                            <mxPoint x="570" y="360"/>
                        </Array>
                    </mxGeometry>
                </mxCell>
                <mxCell id="18" value="&lt;pre&gt;NO&lt;/pre&gt;" style="edgeLabel;html=1;align=center;verticalAlign=middle;resizable=0;points=[];" parent="11" vertex="1" connectable="0">
                    <mxGeometry x="-0.353" y="1" relative="1" as="geometry">
                        <mxPoint as="offset"/>
                    </mxGeometry>
                </mxCell>
                <mxCell id="6" value="&lt;pre&gt;IF EOFSW = ‘YES’&lt;/pre&gt;&lt;p align=&quot;center&quot; class=&quot;MsoNormal&quot;&gt;&lt;/p&gt;" style="rhombus;whiteSpace=wrap;html=1;" parent="1" vertex="1">
                    <mxGeometry x="370" y="320" width="140" height="90" as="geometry"/>
                </mxCell>
                <mxCell id="8" value="&lt;pre&gt;FINISH-RTN.&lt;/pre&gt;" style="shape=process;whiteSpace=wrap;html=1;backgroundOutline=1;" parent="1" vertex="1">
                    <mxGeometry x="230" y="420" width="120" height="30" as="geometry"/>
                </mxCell>
                <mxCell id="16" style="edgeStyle=none;html=1;exitX=0.5;exitY=1;exitDx=0;exitDy=0;entryX=0.5;entryY=0;entryDx=0;entryDy=0;" parent="1" source="10" target="15" edge="1">
                    <mxGeometry relative="1" as="geometry"/>
                </mxCell>
                <mxCell id="10" value="&lt;pre&gt;PROCESS-RTN.&lt;/pre&gt;" style="shape=process;whiteSpace=wrap;html=1;backgroundOutline=1;" parent="1" vertex="1">
                    <mxGeometry x="510" y="420" width="120" height="30" as="geometry"/>
                </mxCell>
                <mxCell id="13" value="&lt;pre&gt;STOP RUN.&lt;/pre&gt;" style="rounded=1;whiteSpace=wrap;html=1;arcSize=50;" parent="1" vertex="1">
                    <mxGeometry x="230" y="460" width="100" height="30" as="geometry"/>
                </mxCell>
                <mxCell id="15" value="&lt;pre&gt;M&lt;/pre&gt;" style="ellipse;whiteSpace=wrap;html=1;aspect=fixed;" parent="1" vertex="1">
                    <mxGeometry x="555" y="480" width="30" height="30" as="geometry"/>
                </mxCell>
                <mxCell id="20" style="edgeStyle=none;html=1;" parent="1" source="19" edge="1">
                    <mxGeometry relative="1" as="geometry">
                        <mxPoint x="440" y="285" as="targetPoint"/>
                    </mxGeometry>
                </mxCell>
                <mxCell id="19" value="&lt;pre&gt;M&lt;/pre&gt;" style="ellipse;whiteSpace=wrap;html=1;aspect=fixed;" parent="1" vertex="1">
                    <mxGeometry x="320" y="270" width="30" height="30" as="geometry"/>
                </mxCell>
            </root>
        </mxGraphModel>
    </diagram>
    <diagram id="k4uJYlcKyp33gYcqn52G" name="initial-rtn">
        <mxGraphModel dx="1343" dy="673" grid="1" gridSize="10" guides="1" tooltips="1" connect="1" arrows="1" fold="1" page="1" pageScale="1" pageWidth="850" pageHeight="1100" math="0" shadow="0">
            <root>
                <mxCell id="0"/>
                <mxCell id="1" parent="0"/>
                <mxCell id="qPFKyn2VXZba24kUAFU7-1" style="edgeStyle=none;html=1;exitX=0.5;exitY=1;exitDx=0;exitDy=0;entryX=0.491;entryY=0.002;entryDx=0;entryDy=0;entryPerimeter=0;fontSize=11;fontColor=#F0F0F0;" parent="1" source="JNNsPXFSB_ZQwAHoGxBh-2" target="JNNsPXFSB_ZQwAHoGxBh-3" edge="1">
                    <mxGeometry relative="1" as="geometry"/>
                </mxCell>
                <mxCell id="JNNsPXFSB_ZQwAHoGxBh-2" value="&lt;pre&gt;INITIAL-RTN.&lt;/pre&gt;&lt;p align=&quot;center&quot; class=&quot;MsoNormal&quot;&gt;&lt;/p&gt;" style="rounded=1;whiteSpace=wrap;html=1;arcSize=50;" parent="1" vertex="1">
                    <mxGeometry x="350" y="70" width="120" height="40" as="geometry"/>
                </mxCell>
                <mxCell id="fxMx7R2LBYrm5y1K-BJE-2" style="edgeStyle=none;html=1;exitX=0.5;exitY=1;exitDx=0;exitDy=0;entryX=0.5;entryY=0;entryDx=0;entryDy=0;" parent="1" source="JNNsPXFSB_ZQwAHoGxBh-3" target="qPFKyn2VXZba24kUAFU7-2" edge="1">
                    <mxGeometry relative="1" as="geometry"/>
                </mxCell>
                <mxCell id="JNNsPXFSB_ZQwAHoGxBh-3" value="&lt;pre style=&quot;font-size: 11px;&quot;&gt;&lt;font style=&quot;font-size: 11px;&quot;&gt;&lt;span style=&quot;background-color: initial;&quot;&gt;INFILE, REC-IN, ACCNO-IN, ACCNAME-IN, TC,&amp;nbsp;&lt;/span&gt;&lt;span style=&quot;background-color: initial;&quot;&gt;AMOUNT&lt;br&gt;&lt;/span&gt;&lt;/font&gt;&lt;pre style=&quot;&quot;&gt;&lt;font style=&quot;font-size: 11px;&quot;&gt;&lt;font style=&quot;font-size: 11px;&quot;&gt;OUTFILE, OUTREC, REC-OUT, ACCNO-OUT, ACCNAME-OUT, &lt;/font&gt;&lt;br&gt;&lt;/font&gt;&lt;pre&gt;&lt;font style=&quot;font-size: 11px;&quot;&gt;TOTDREC – “&lt;span style=&quot;&quot; lang=&quot;EN-PH&quot;&gt;TOTAL DEPOSITORS: “, DCTR-OUT | DCTR=0&lt;/span&gt;&lt;/font&gt;&lt;pre style=&quot;&quot;&gt;&lt;font style=&quot;font-size: 11px;&quot;&gt;&lt;font style=&quot;font-size: 11px;&quot;&gt;&lt;span style=&quot;&quot; lang=&quot;EN-PH&quot;&gt;TOTBREC – “TOTAL ACCUMULATED BALANCES: “, BCTR-OUT | BCTR=0&lt;/span&gt;&lt;/font&gt;&lt;font style=&quot;font-size: 11px;&quot;&gt;&lt;span style=&quot;&quot; lang=&quot;EN-PH&quot;&gt;&lt;br&gt;&lt;/span&gt;&lt;/font&gt;&lt;font style=&quot;font-size: 11px;&quot;&gt;&lt;span style=&quot;&quot; lang=&quot;EN-PH&quot;&gt;TOTBREC – “TOTAL ACCUMULATED BALANCES: “, BCTR-OUT | BCTR=0&lt;/span&gt;&lt;/font&gt;&lt;font style=&quot;font-size: 11px;&quot;&gt;&lt;span style=&quot;&quot; lang=&quot;EN-PH&quot;&gt;&lt;br&gt;&lt;/span&gt;&lt;/font&gt;&lt;font style=&quot;font-size: 11px;&quot;&gt;&lt;span style=&quot;&quot; lang=&quot;EN-PH&quot;&gt;TOTBREC – “TOTAL ACCUMULATED BALANCES: “, BCTR-OUT | BCTR=0&lt;/span&gt;&lt;/font&gt;&lt;/font&gt;&lt;/pre&gt;&lt;/pre&gt;&lt;/pre&gt;&lt;/pre&gt;&lt;pre style=&quot;font-size: 11px;&quot;&gt;&lt;font style=&quot;font-size: 11px;&quot;&gt;BAL-OUT&amp;nbsp; | BAL = 0 | EOFSW = ‘NO ‘&amp;nbsp; | TACCNO = ‘ ‘&amp;nbsp; | TACCNAME = ‘ ‘&lt;/font&gt;&lt;/pre&gt;" style="shape=hexagon;perimeter=hexagonPerimeter2;whiteSpace=wrap;html=1;fixedSize=1;size=30;align=center;" parent="1" vertex="1">
                    <mxGeometry x="50" y="140" width="740" height="170" as="geometry"/>
                </mxCell>
                <mxCell id="ynqW-IwG-EB5LRX2iBab-1" style="edgeStyle=none;html=1;exitX=0.5;exitY=1;exitDx=0;exitDy=0;entryX=0.5;entryY=0;entryDx=0;entryDy=0;" parent="1" source="qPFKyn2VXZba24kUAFU7-2" target="qPFKyn2VXZba24kUAFU7-3" edge="1">
                    <mxGeometry relative="1" as="geometry"/>
                </mxCell>
                <mxCell id="qPFKyn2VXZba24kUAFU7-2" value="&lt;pre&gt;OPEN INPUT INFILE&lt;br/&gt;OUTPUT OUTFILE.&lt;/pre&gt;&lt;p align=&quot;center&quot; class=&quot;MsoNormal&quot;&gt;&lt;/p&gt;" style="rounded=0;whiteSpace=wrap;html=1;labelBackgroundColor=#18141D;fontSize=11;fontColor=#F0F0F0;" parent="1" vertex="1">
                    <mxGeometry x="325" y="327" width="190" height="50" as="geometry"/>
                </mxCell>
                <mxCell id="fxMx7R2LBYrm5y1K-BJE-1" style="edgeStyle=none;html=1;exitX=0.5;exitY=1;exitDx=0;exitDy=0;entryX=0.5;entryY=0;entryDx=0;entryDy=0;" parent="1" source="qPFKyn2VXZba24kUAFU7-3" target="qPFKyn2VXZba24kUAFU7-4" edge="1">
                    <mxGeometry relative="1" as="geometry"/>
                </mxCell>
                <mxCell id="qPFKyn2VXZba24kUAFU7-3" value="&lt;pre&gt;READ INFILE&lt;/pre&gt;" style="shape=parallelogram;perimeter=parallelogramPerimeter;whiteSpace=wrap;html=1;fixedSize=1;labelBackgroundColor=#18141D;fontSize=11;fontColor=#F0F0F0;" parent="1" vertex="1">
                    <mxGeometry x="350" y="389" width="120" height="60" as="geometry"/>
                </mxCell>
                <mxCell id="qPFKyn2VXZba24kUAFU7-12" style="edgeStyle=none;html=1;entryX=0.379;entryY=0.037;entryDx=0;entryDy=0;entryPerimeter=0;fontSize=11;fontColor=#F0F0F0;" parent="1" source="qPFKyn2VXZba24kUAFU7-4" target="qPFKyn2VXZba24kUAFU7-6" edge="1">
                    <mxGeometry relative="1" as="geometry">
                        <Array as="points">
                            <mxPoint x="250" y="504"/>
                        </Array>
                    </mxGeometry>
                </mxCell>
                <mxCell id="Vyr_tkfjEYzoEg9N8U9o-1" value="&lt;font face=&quot;Courier New&quot;&gt;YES&lt;/font&gt;" style="edgeLabel;html=1;align=center;verticalAlign=middle;resizable=0;points=[];" parent="qPFKyn2VXZba24kUAFU7-12" vertex="1" connectable="0">
                    <mxGeometry x="-0.4453" y="-1" relative="1" as="geometry">
                        <mxPoint as="offset"/>
                    </mxGeometry>
                </mxCell>
                <mxCell id="qPFKyn2VXZba24kUAFU7-14" style="edgeStyle=none;html=1;entryX=0.472;entryY=-0.062;entryDx=0;entryDy=0;entryPerimeter=0;fontSize=11;fontColor=#F0F0F0;" parent="1" source="qPFKyn2VXZba24kUAFU7-4" target="qPFKyn2VXZba24kUAFU7-13" edge="1">
                    <mxGeometry relative="1" as="geometry">
                        <Array as="points">
                            <mxPoint x="570" y="500"/>
                        </Array>
                    </mxGeometry>
                </mxCell>
                <mxCell id="Vyr_tkfjEYzoEg9N8U9o-2" value="NO" style="edgeLabel;html=1;align=center;verticalAlign=middle;resizable=0;points=[];fontFamily=Courier New;" parent="qPFKyn2VXZba24kUAFU7-14" vertex="1" connectable="0">
                    <mxGeometry x="-0.1409" relative="1" as="geometry">
                        <mxPoint as="offset"/>
                    </mxGeometry>
                </mxCell>
                <mxCell id="qPFKyn2VXZba24kUAFU7-4" value="&lt;pre&gt;AT END&lt;/pre&gt;" style="rhombus;whiteSpace=wrap;html=1;labelBackgroundColor=#18141D;fontSize=11;fontColor=#F0F0F0;" parent="1" vertex="1">
                    <mxGeometry x="360" y="464" width="80" height="80" as="geometry"/>
                </mxCell>
                <mxCell id="qPFKyn2VXZba24kUAFU7-10" style="edgeStyle=none;html=1;entryX=0;entryY=0.75;entryDx=0;entryDy=0;fontSize=11;fontColor=#F0F0F0;" parent="1" source="qPFKyn2VXZba24kUAFU7-6" target="qPFKyn2VXZba24kUAFU7-8" edge="1">
                    <mxGeometry relative="1" as="geometry">
                        <Array as="points">
                            <mxPoint x="275" y="650"/>
                        </Array>
                    </mxGeometry>
                </mxCell>
                <mxCell id="qPFKyn2VXZba24kUAFU7-6" value="&lt;pre&gt;MOVE&amp;nbsp; 'YES' TO 'EOFSW.&amp;nbsp;&lt;/pre&gt;" style="rounded=0;whiteSpace=wrap;html=1;labelBackgroundColor=#18141D;fontSize=11;fontColor=#F0F0F0;" parent="1" vertex="1">
                    <mxGeometry x="190" y="544" width="170" height="46" as="geometry"/>
                </mxCell>
                <mxCell id="qPFKyn2VXZba24kUAFU7-8" value="&lt;pre&gt;RETURN&lt;/pre&gt;&lt;p align=&quot;center&quot; class=&quot;MsoNormal&quot;&gt;&lt;/p&gt;" style="rounded=1;whiteSpace=wrap;html=1;arcSize=50;" parent="1" vertex="1">
                    <mxGeometry x="350" y="620" width="120" height="40" as="geometry"/>
                </mxCell>
                <mxCell id="qPFKyn2VXZba24kUAFU7-15" style="edgeStyle=none;html=1;entryX=1;entryY=0.75;entryDx=0;entryDy=0;fontSize=11;fontColor=#F0F0F0;" parent="1" source="qPFKyn2VXZba24kUAFU7-13" target="qPFKyn2VXZba24kUAFU7-8" edge="1">
                    <mxGeometry relative="1" as="geometry">
                        <Array as="points">
                            <mxPoint x="575" y="650"/>
                        </Array>
                    </mxGeometry>
                </mxCell>
                <mxCell id="qPFKyn2VXZba24kUAFU7-13" value="&lt;pre&gt;&lt;p align=&quot;center&quot; class=&quot;MsoNormal&quot;&gt;MOVE ACCNO-IN TO TACCNO.&lt;br&gt;MOVE ACCNAME-IN TO TACCNAME.&lt;/p&gt;&lt;/pre&gt;" style="rounded=0;whiteSpace=wrap;html=1;labelBackgroundColor=#18141D;fontSize=11;fontColor=#F0F0F0;" parent="1" vertex="1">
                    <mxGeometry x="470" y="544" width="210" height="56" as="geometry"/>
                </mxCell>
            </root>
        </mxGraphModel>
    </diagram>
    <diagram id="8lONlVj879tS5M38CXtB" name="process-rtn">
        <mxGraphModel dx="621" dy="294" grid="1" gridSize="10" guides="1" tooltips="1" connect="1" arrows="1" fold="1" page="1" pageScale="1" pageWidth="850" pageHeight="1100" math="0" shadow="0">
            <root>
                <mxCell id="0"/>
                <mxCell id="1" parent="0"/>
                <mxCell id="DVDAP2Rj-ki6O6vhwZNl-1" style="edgeStyle=none;html=1;entryX=0.5;entryY=0;entryDx=0;entryDy=0;fontColor=none;" parent="1" source="uAgVXcSkE7LuQJuf7o8H-2" target="uAgVXcSkE7LuQJuf7o8H-9" edge="1">
                    <mxGeometry relative="1" as="geometry"/>
                </mxCell>
                <mxCell id="uAgVXcSkE7LuQJuf7o8H-2" value="&lt;pre&gt;PROCESS-RTN.&lt;/pre&gt;" style="rounded=1;whiteSpace=wrap;html=1;arcSize=50;" parent="1" vertex="1">
                    <mxGeometry x="381.88" y="140" width="100" height="30" as="geometry"/>
                </mxCell>
                <mxCell id="u3G4bJ6si0Gmxz9wS87w-6" style="edgeStyle=none;html=1;entryX=0.481;entryY=-0.076;entryDx=0;entryDy=0;entryPerimeter=0;fontColor=#F0F0F0;" parent="1" source="uAgVXcSkE7LuQJuf7o8H-9" target="u3G4bJ6si0Gmxz9wS87w-1" edge="1">
                    <mxGeometry relative="1" as="geometry">
                        <Array as="points">
                            <mxPoint x="300" y="250"/>
                            <mxPoint x="240" y="250"/>
                        </Array>
                    </mxGeometry>
                </mxCell>
                <mxCell id="BCTRiw1iV9nBS8iUXPFg-2" value="NO" style="edgeLabel;html=1;align=center;verticalAlign=middle;resizable=0;points=[];fontFamily=Courier New;" vertex="1" connectable="0" parent="u3G4bJ6si0Gmxz9wS87w-6">
                    <mxGeometry x="-0.3219" y="1" relative="1" as="geometry">
                        <mxPoint as="offset"/>
                    </mxGeometry>
                </mxCell>
                <mxCell id="u3G4bJ6si0Gmxz9wS87w-10" style="edgeStyle=none;html=1;fontColor=#F0F0F0;entryX=1;entryY=0.5;entryDx=0;entryDy=0;" parent="1" source="uAgVXcSkE7LuQJuf7o8H-9" target="u3G4bJ6si0Gmxz9wS87w-9" edge="1">
                    <mxGeometry relative="1" as="geometry">
                        <mxPoint x="600" y="260" as="targetPoint"/>
                        <Array as="points">
                            <mxPoint x="600" y="260"/>
                            <mxPoint x="600" y="360"/>
                        </Array>
                    </mxGeometry>
                </mxCell>
                <mxCell id="BCTRiw1iV9nBS8iUXPFg-3" value="YES" style="edgeLabel;html=1;align=center;verticalAlign=middle;resizable=0;points=[];fontFamily=Courier New;" vertex="1" connectable="0" parent="u3G4bJ6si0Gmxz9wS87w-10">
                    <mxGeometry x="-0.6517" y="-1" relative="1" as="geometry">
                        <mxPoint as="offset"/>
                    </mxGeometry>
                </mxCell>
                <mxCell id="uAgVXcSkE7LuQJuf7o8H-9" value="&lt;pre&gt;&lt;p align=&quot;center&quot; class=&quot;MsoNormal&quot;&gt;IF ACCNO-IN = 'TACCNO'&lt;/p&gt;&lt;/pre&gt;&lt;p align=&quot;center&quot; class=&quot;MsoNormal&quot;&gt;&lt;/p&gt;" style="rhombus;whiteSpace=wrap;html=1;" parent="1" vertex="1">
                    <mxGeometry x="330" y="200" width="203.75" height="110" as="geometry"/>
                </mxCell>
                <mxCell id="u3G4bJ6si0Gmxz9wS87w-8" style="edgeStyle=none;html=1;fontColor=#F0F0F0;" parent="1" source="u3G4bJ6si0Gmxz9wS87w-1" target="u3G4bJ6si0Gmxz9wS87w-9" edge="1">
                    <mxGeometry relative="1" as="geometry">
                        <mxPoint x="420" y="360" as="targetPoint"/>
                    </mxGeometry>
                </mxCell>
                <mxCell id="u3G4bJ6si0Gmxz9wS87w-1" value="&lt;pre&gt;&lt;br/&gt;&lt;p align=&quot;center&quot; class=&quot;MsoNormal&quot;&gt;ACCNT-BREAK-RTN.&lt;/p&gt;&lt;br/&gt;&lt;/pre&gt;" style="shape=process;whiteSpace=wrap;html=1;backgroundOutline=1;" parent="1" vertex="1">
                    <mxGeometry x="170" y="345" width="150" height="35" as="geometry"/>
                </mxCell>
                <mxCell id="u3G4bJ6si0Gmxz9wS87w-14" style="edgeStyle=none;html=1;entryX=0.5;entryY=0;entryDx=0;entryDy=0;fontColor=#F0F0F0;" parent="1" source="u3G4bJ6si0Gmxz9wS87w-9" target="u3G4bJ6si0Gmxz9wS87w-13" edge="1">
                    <mxGeometry relative="1" as="geometry"/>
                </mxCell>
                <mxCell id="u3G4bJ6si0Gmxz9wS87w-9" value="" style="ellipse;whiteSpace=wrap;html=1;aspect=fixed;labelBackgroundColor=#18141D;fontColor=#F0F0F0;" parent="1" vertex="1">
                    <mxGeometry x="425" y="340" width="40" height="40" as="geometry"/>
                </mxCell>
                <mxCell id="u3G4bJ6si0Gmxz9wS87w-15" style="edgeStyle=none;html=1;exitX=0;exitY=0.5;exitDx=0;exitDy=0;fontColor=#F0F0F0;" parent="1" source="u3G4bJ6si0Gmxz9wS87w-13" edge="1">
                    <mxGeometry relative="1" as="geometry">
                        <mxPoint x="240" y="520" as="targetPoint"/>
                        <Array as="points">
                            <mxPoint x="240" y="470"/>
                        </Array>
                    </mxGeometry>
                </mxCell>
                <mxCell id="BCTRiw1iV9nBS8iUXPFg-4" value="NO" style="edgeLabel;html=1;align=center;verticalAlign=middle;resizable=0;points=[];fontFamily=Courier New;" vertex="1" connectable="0" parent="u3G4bJ6si0Gmxz9wS87w-15">
                    <mxGeometry x="-0.3593" y="-1" relative="1" as="geometry">
                        <mxPoint as="offset"/>
                    </mxGeometry>
                </mxCell>
                <mxCell id="u3G4bJ6si0Gmxz9wS87w-20" style="edgeStyle=none;html=1;fontColor=#F0F0F0;" parent="1" source="u3G4bJ6si0Gmxz9wS87w-13" edge="1">
                    <mxGeometry relative="1" as="geometry">
                        <mxPoint x="660" y="520" as="targetPoint"/>
                        <Array as="points">
                            <mxPoint x="660" y="470"/>
                        </Array>
                    </mxGeometry>
                </mxCell>
                <mxCell id="BCTRiw1iV9nBS8iUXPFg-5" value="YES" style="edgeLabel;html=1;align=center;verticalAlign=middle;resizable=0;points=[];fontFamily=Courier New;" vertex="1" connectable="0" parent="u3G4bJ6si0Gmxz9wS87w-20">
                    <mxGeometry x="-0.1225" y="-1" relative="1" as="geometry">
                        <mxPoint as="offset"/>
                    </mxGeometry>
                </mxCell>
                <mxCell id="u3G4bJ6si0Gmxz9wS87w-13" value="&lt;pre&gt;&lt;p align=&quot;center&quot; class=&quot;MsoNormal&quot;&gt;IF TC = 'D' &lt;/p&gt;&lt;/pre&gt;&lt;p align=&quot;center&quot; class=&quot;MsoNormal&quot;&gt;&lt;/p&gt;" style="rhombus;whiteSpace=wrap;html=1;" parent="1" vertex="1">
                    <mxGeometry x="362.5" y="420" width="165" height="100" as="geometry"/>
                </mxCell>
                <mxCell id="u3G4bJ6si0Gmxz9wS87w-25" style="edgeStyle=none;html=1;entryX=0;entryY=0.5;entryDx=0;entryDy=0;fontColor=#F0F0F0;" parent="1" source="u3G4bJ6si0Gmxz9wS87w-19" target="u3G4bJ6si0Gmxz9wS87w-22" edge="1">
                    <mxGeometry relative="1" as="geometry">
                        <Array as="points">
                            <mxPoint x="250" y="650"/>
                        </Array>
                    </mxGeometry>
                </mxCell>
                <mxCell id="u3G4bJ6si0Gmxz9wS87w-19" value="&lt;pre&gt;SUBTRACT AMOUNT FROM BAL.&amp;nbsp;&lt;/pre&gt;" style="rounded=0;whiteSpace=wrap;html=1;labelBackgroundColor=#18141D;fontColor=#F0F0F0;" parent="1" vertex="1">
                    <mxGeometry x="147.5" y="520" width="195" height="40" as="geometry"/>
                </mxCell>
                <mxCell id="u3G4bJ6si0Gmxz9wS87w-24" style="edgeStyle=none;html=1;fontColor=#F0F0F0;" parent="1" source="u3G4bJ6si0Gmxz9wS87w-21" target="u3G4bJ6si0Gmxz9wS87w-22" edge="1">
                    <mxGeometry relative="1" as="geometry">
                        <Array as="points">
                            <mxPoint x="650" y="650"/>
                        </Array>
                    </mxGeometry>
                </mxCell>
                <mxCell id="u3G4bJ6si0Gmxz9wS87w-21" value="&lt;pre&gt;ADD AMOUNT FROM BAL.&amp;nbsp;&lt;/pre&gt;" style="rounded=0;whiteSpace=wrap;html=1;labelBackgroundColor=#18141D;fontColor=#F0F0F0;" parent="1" vertex="1">
                    <mxGeometry x="560" y="520" width="195" height="60" as="geometry"/>
                </mxCell>
                <mxCell id="Zq8CB4EOCFxuvhyKGh03-1" style="edgeStyle=none;html=1;exitX=0.5;exitY=1;exitDx=0;exitDy=0;entryX=0.5;entryY=0;entryDx=0;entryDy=0;" parent="1" source="u3G4bJ6si0Gmxz9wS87w-22" target="u3G4bJ6si0Gmxz9wS87w-26" edge="1">
                    <mxGeometry relative="1" as="geometry"/>
                </mxCell>
                <mxCell id="u3G4bJ6si0Gmxz9wS87w-22" value="&lt;pre&gt;READ INFILE&lt;/pre&gt;" style="shape=parallelogram;perimeter=parallelogramPerimeter;whiteSpace=wrap;html=1;fixedSize=1;labelBackgroundColor=#18141D;fontColor=#F0F0F0;" parent="1" vertex="1">
                    <mxGeometry x="390" y="620" width="120" height="60" as="geometry"/>
                </mxCell>
                <mxCell id="u3G4bJ6si0Gmxz9wS87w-27" style="edgeStyle=none;html=1;fontColor=#F0F0F0;" parent="1" source="u3G4bJ6si0Gmxz9wS87w-26" edge="1">
                    <mxGeometry relative="1" as="geometry">
                        <mxPoint x="280" y="820" as="targetPoint"/>
                        <Array as="points">
                            <mxPoint x="280" y="760"/>
                        </Array>
                    </mxGeometry>
                </mxCell>
                <mxCell id="BCTRiw1iV9nBS8iUXPFg-6" value="YES" style="edgeLabel;html=1;align=center;verticalAlign=middle;resizable=0;points=[];fontFamily=Courier New;" vertex="1" connectable="0" parent="u3G4bJ6si0Gmxz9wS87w-27">
                    <mxGeometry x="-0.4776" y="-2" relative="1" as="geometry">
                        <mxPoint as="offset"/>
                    </mxGeometry>
                </mxCell>
                <mxCell id="u3G4bJ6si0Gmxz9wS87w-36" style="edgeStyle=none;html=1;exitX=1;exitY=0.5;exitDx=0;exitDy=0;entryX=1;entryY=0.5;entryDx=0;entryDy=0;fontColor=#F0F0F0;" parent="1" source="u3G4bJ6si0Gmxz9wS87w-26" target="u3G4bJ6si0Gmxz9wS87w-34" edge="1">
                    <mxGeometry relative="1" as="geometry">
                        <Array as="points">
                            <mxPoint x="630" y="760"/>
                            <mxPoint x="640" y="960"/>
                        </Array>
                    </mxGeometry>
                </mxCell>
                <mxCell id="BCTRiw1iV9nBS8iUXPFg-7" value="NO" style="edgeLabel;html=1;align=center;verticalAlign=middle;resizable=0;points=[];fontFamily=Courier New;" vertex="1" connectable="0" parent="u3G4bJ6si0Gmxz9wS87w-36">
                    <mxGeometry x="-0.7062" relative="1" as="geometry">
                        <mxPoint as="offset"/>
                    </mxGeometry>
                </mxCell>
                <mxCell id="u3G4bJ6si0Gmxz9wS87w-26" value="&lt;pre&gt;AT END&lt;/pre&gt;" style="rhombus;whiteSpace=wrap;html=1;labelBackgroundColor=#18141D;fontColor=#F0F0F0;" parent="1" vertex="1">
                    <mxGeometry x="385" y="710" width="130" height="110" as="geometry"/>
                </mxCell>
                <mxCell id="BCTRiw1iV9nBS8iUXPFg-1" style="edgeStyle=none;html=1;entryX=0.5;entryY=0;entryDx=0;entryDy=0;fontFamily=Courier New;" edge="1" parent="1" source="u3G4bJ6si0Gmxz9wS87w-28" target="u3G4bJ6si0Gmxz9wS87w-33">
                    <mxGeometry relative="1" as="geometry"/>
                </mxCell>
                <mxCell id="u3G4bJ6si0Gmxz9wS87w-28" value="&lt;pre&gt;MOVE 'YES' TO EOFSW.&lt;/pre&gt;" style="rounded=0;whiteSpace=wrap;html=1;labelBackgroundColor=#18141D;fontColor=#F0F0F0;" parent="1" vertex="1">
                    <mxGeometry x="190" y="820" width="195" height="40" as="geometry"/>
                </mxCell>
                <mxCell id="u3G4bJ6si0Gmxz9wS87w-35" style="edgeStyle=none;html=1;entryX=0;entryY=0.75;entryDx=0;entryDy=0;fontColor=#F0F0F0;" parent="1" source="u3G4bJ6si0Gmxz9wS87w-33" target="u3G4bJ6si0Gmxz9wS87w-34" edge="1">
                    <mxGeometry relative="1" as="geometry">
                        <Array as="points">
                            <mxPoint x="270" y="970"/>
                        </Array>
                    </mxGeometry>
                </mxCell>
                <mxCell id="u3G4bJ6si0Gmxz9wS87w-33" value="&lt;pre&gt;&lt;p align=&quot;center&quot; class=&quot;MsoNormal&quot;&gt;ACCNT-BREAK-RTN.&lt;/p&gt;&lt;/pre&gt;" style="shape=process;whiteSpace=wrap;html=1;backgroundOutline=1;" parent="1" vertex="1">
                    <mxGeometry x="200" y="880" width="150" height="35" as="geometry"/>
                </mxCell>
                <mxCell id="u3G4bJ6si0Gmxz9wS87w-34" value="&lt;pre&gt;RETURN.&lt;/pre&gt;" style="rounded=1;whiteSpace=wrap;html=1;arcSize=50;" parent="1" vertex="1">
                    <mxGeometry x="400" y="950" width="100" height="30" as="geometry"/>
                </mxCell>
            </root>
        </mxGraphModel>
    </diagram>
    <diagram id="Vynr69CDQYeTl5AzBuqJ" name="accnt-break-rtn">
        <mxGraphModel dx="1087" dy="515" grid="1" gridSize="10" guides="1" tooltips="1" connect="1" arrows="1" fold="1" page="1" pageScale="1" pageWidth="850" pageHeight="1100" math="0" shadow="0">
            <root>
                <mxCell id="0"/>
                <mxCell id="1" parent="0"/>
                <mxCell id="BeboHnabtrFSgBAjTzyA-1" style="edgeStyle=none;html=1;exitX=0.5;exitY=1;exitDx=0;exitDy=0;entryX=0.5;entryY=0;entryDx=0;entryDy=0;" parent="1" source="fD0qA0TeDbaFrUZA8Lpj-1" target="fD0qA0TeDbaFrUZA8Lpj-2" edge="1">
                    <mxGeometry relative="1" as="geometry"/>
                </mxCell>
                <mxCell id="fD0qA0TeDbaFrUZA8Lpj-1" value="&lt;pre&gt;ACCTN-BREAK-RTN.&lt;/pre&gt;" style="rounded=1;whiteSpace=wrap;html=1;labelBackgroundColor=#18141D;fontColor=#F0F0F0;arcSize=50;" parent="1" vertex="1">
                    <mxGeometry x="350" y="100" width="135" height="60" as="geometry"/>
                </mxCell>
                <mxCell id="BeboHnabtrFSgBAjTzyA-2" style="edgeStyle=none;html=1;exitX=0.5;exitY=1;exitDx=0;exitDy=0;entryX=0.5;entryY=0;entryDx=0;entryDy=0;" parent="1" source="fD0qA0TeDbaFrUZA8Lpj-2" target="fD0qA0TeDbaFrUZA8Lpj-4" edge="1">
                    <mxGeometry relative="1" as="geometry"/>
                </mxCell>
                <mxCell id="fD0qA0TeDbaFrUZA8Lpj-2" value="&lt;pre&gt;MOVE TACCNO TO ACCNO-OUT.&lt;br&gt;MOVE TACCNAME TO ACCNAME-OUT.&lt;br&gt;MOVE BAL TO BAL-OUT.&lt;/pre&gt;" style="rounded=0;whiteSpace=wrap;html=1;labelBackgroundColor=#18141D;fontColor=#F0F0F0;" parent="1" vertex="1">
                    <mxGeometry x="265.63" y="190" width="303.75" height="70" as="geometry"/>
                </mxCell>
                <mxCell id="BeboHnabtrFSgBAjTzyA-3" style="edgeStyle=none;html=1;exitX=0.5;exitY=1;exitDx=0;exitDy=0;entryX=0.5;entryY=0;entryDx=0;entryDy=0;" parent="1" source="fD0qA0TeDbaFrUZA8Lpj-4" target="fD0qA0TeDbaFrUZA8Lpj-6" edge="1">
                    <mxGeometry relative="1" as="geometry"/>
                </mxCell>
                <mxCell id="fD0qA0TeDbaFrUZA8Lpj-4" value="&lt;pre&gt;WRITE OUTREC FROM REC-OUT.&lt;/pre&gt;&lt;p align=&quot;center&quot; class=&quot;MsoNormal&quot;&gt;&lt;/p&gt;" style="shape=parallelogram;perimeter=parallelogramPerimeter;whiteSpace=wrap;html=1;fixedSize=1;labelBackgroundColor=#18141D;fontColor=#F0F0F0;" parent="1" vertex="1">
                    <mxGeometry x="297.5" y="280" width="240" height="70" as="geometry"/>
                </mxCell>
                <mxCell id="BeboHnabtrFSgBAjTzyA-4" style="edgeStyle=none;html=1;exitX=0.5;exitY=1;exitDx=0;exitDy=0;entryX=0.5;entryY=0;entryDx=0;entryDy=0;" parent="1" source="fD0qA0TeDbaFrUZA8Lpj-6" target="fD0qA0TeDbaFrUZA8Lpj-7" edge="1">
                    <mxGeometry relative="1" as="geometry"/>
                </mxCell>
                <mxCell id="fD0qA0TeDbaFrUZA8Lpj-6" value="&lt;pre&gt;ADD 1 TO DCTR.&lt;/pre&gt;&lt;pre&gt;ADD BAL TO BCTR.&lt;/pre&gt;" style="rounded=0;whiteSpace=wrap;html=1;labelBackgroundColor=#18141D;fontColor=#F0F0F0;" parent="1" vertex="1">
                    <mxGeometry x="265.63" y="370" width="290" height="66.29" as="geometry"/>
                </mxCell>
                <mxCell id="pFrqYFUwng74ebr4O_0g-1" style="edgeStyle=none;html=1;exitX=0.5;exitY=1;exitDx=0;exitDy=0;fontFamily=Courier New;" edge="1" parent="1" source="fD0qA0TeDbaFrUZA8Lpj-7" target="fD0qA0TeDbaFrUZA8Lpj-8">
                    <mxGeometry relative="1" as="geometry"/>
                </mxCell>
                <mxCell id="fD0qA0TeDbaFrUZA8Lpj-7" value="&lt;pre&gt;MOVE ACCNO-IN TO TACCNO.&lt;/pre&gt;&lt;pre&gt; MOVE ACCNONAME-IN TO TACCNAME.&lt;/pre&gt;" style="rounded=0;whiteSpace=wrap;html=1;labelBackgroundColor=#18141D;fontColor=#F0F0F0;" parent="1" vertex="1">
                    <mxGeometry x="272.51" y="456" width="290" height="66.29" as="geometry"/>
                </mxCell>
                <mxCell id="QCgT9S9ghKRQSyXqlo9I-1" style="edgeStyle=none;html=1;entryX=0.5;entryY=0;entryDx=0;entryDy=0;" parent="1" source="fD0qA0TeDbaFrUZA8Lpj-8" target="fD0qA0TeDbaFrUZA8Lpj-9" edge="1">
                    <mxGeometry relative="1" as="geometry"/>
                </mxCell>
                <mxCell id="fD0qA0TeDbaFrUZA8Lpj-8" value="&lt;pre&gt;MOVE 0 TO BAL.&lt;/pre&gt;" style="rounded=0;whiteSpace=wrap;html=1;labelBackgroundColor=#18141D;fontColor=#F0F0F0;" parent="1" vertex="1">
                    <mxGeometry x="272.51" y="540" width="290" height="66.29" as="geometry"/>
                </mxCell>
                <mxCell id="fD0qA0TeDbaFrUZA8Lpj-9" value="&lt;pre&gt;RETURN&lt;/pre&gt;" style="rounded=1;whiteSpace=wrap;html=1;labelBackgroundColor=#18141D;fontColor=#F0F0F0;arcSize=50;" parent="1" vertex="1">
                    <mxGeometry x="343.13" y="630" width="146.87" height="40" as="geometry"/>
                </mxCell>
            </root>
        </mxGraphModel>
    </diagram>
    <diagram id="cz_Z1RTOQEQe3QxLSjGv" name="finish-rtn">
        <mxGraphModel dx="1087" dy="515" grid="1" gridSize="10" guides="1" tooltips="1" connect="1" arrows="1" fold="1" page="1" pageScale="1" pageWidth="850" pageHeight="1100" math="0" shadow="0">
            <root>
                <mxCell id="0"/>
                <mxCell id="1" parent="0"/>
                <mxCell id="gfyf12BkMXp9_CpowExO-1" style="edgeStyle=none;html=1;exitX=0.5;exitY=1;exitDx=0;exitDy=0;entryX=0.466;entryY=-0.033;entryDx=0;entryDy=0;entryPerimeter=0;" parent="1" source="_xxMzUl0x7yWR2BOCNSC-1" target="gv_gUJh9G303_6iAeJs--1" edge="1">
                    <mxGeometry relative="1" as="geometry"/>
                </mxCell>
                <mxCell id="_xxMzUl0x7yWR2BOCNSC-1" value="&lt;pre&gt;FINISH RTN.&lt;/pre&gt;" style="rounded=1;whiteSpace=wrap;html=1;labelBackgroundColor=#18141D;fontColor=#F0F0F0;arcSize=50;" parent="1" vertex="1">
                    <mxGeometry x="350" y="100" width="135" height="40" as="geometry"/>
                </mxCell>
                <mxCell id="gfyf12BkMXp9_CpowExO-2" style="edgeStyle=none;html=1;exitX=0.5;exitY=1;exitDx=0;exitDy=0;entryX=0.5;entryY=0;entryDx=0;entryDy=0;" parent="1" source="gv_gUJh9G303_6iAeJs--1" target="ZHTOrtUjAYC8c5XZwQaR-1" edge="1">
                    <mxGeometry relative="1" as="geometry"/>
                </mxCell>
                <mxCell id="gv_gUJh9G303_6iAeJs--1" value="&lt;pre&gt;MOVE DCTR TO DCTR-OUT.&lt;br&gt;&amp;nbsp;MOVE BCTR TO BCTR-OUT.&lt;/pre&gt;" style="rounded=0;whiteSpace=wrap;html=1;labelBackgroundColor=#18141D;fontColor=#F0F0F0;" parent="1" vertex="1">
                    <mxGeometry x="286" y="160" width="277" height="60" as="geometry"/>
                </mxCell>
                <mxCell id="gfyf12BkMXp9_CpowExO-3" style="edgeStyle=none;html=1;exitX=0.5;exitY=1;exitDx=0;exitDy=0;" parent="1" source="ZHTOrtUjAYC8c5XZwQaR-1" target="ZHTOrtUjAYC8c5XZwQaR-2" edge="1">
                    <mxGeometry relative="1" as="geometry"/>
                </mxCell>
                <mxCell id="ZHTOrtUjAYC8c5XZwQaR-1" value="&lt;pre&gt;&lt;p align=&quot;center&quot; class=&quot;MsoNormal&quot;&gt;WRITE OUTREC FROM TOTDREC.&lt;br&gt;WRITE OUTREC FROM TOTBREC&lt;/p&gt;&lt;/pre&gt;&lt;p align=&quot;center&quot; class=&quot;MsoNormal&quot;&gt;&lt;/p&gt;" style="shape=parallelogram;perimeter=parallelogramPerimeter;whiteSpace=wrap;html=1;fixedSize=1;labelBackgroundColor=#18141D;fontColor=#F0F0F0;" parent="1" vertex="1">
                    <mxGeometry x="304.5" y="240" width="240" height="70" as="geometry"/>
                </mxCell>
                <mxCell id="gfyf12BkMXp9_CpowExO-4" style="edgeStyle=none;html=1;exitX=0.5;exitY=1;exitDx=0;exitDy=0;entryX=0.5;entryY=0;entryDx=0;entryDy=0;" parent="1" source="ZHTOrtUjAYC8c5XZwQaR-2" target="ZHTOrtUjAYC8c5XZwQaR-4" edge="1">
                    <mxGeometry relative="1" as="geometry"/>
                </mxCell>
                <mxCell id="ZHTOrtUjAYC8c5XZwQaR-2" value="&lt;pre&gt;CLOSE INFILE OUTFILE. &lt;/pre&gt;" style="rounded=0;whiteSpace=wrap;html=1;labelBackgroundColor=#18141D;fontColor=#F0F0F0;" parent="1" vertex="1">
                    <mxGeometry x="307" y="330" width="221" height="40" as="geometry"/>
                </mxCell>
                <mxCell id="ZHTOrtUjAYC8c5XZwQaR-4" value="&lt;pre&gt;RETURN&lt;/pre&gt;" style="rounded=1;whiteSpace=wrap;html=1;labelBackgroundColor=#18141D;fontColor=#F0F0F0;arcSize=50;" parent="1" vertex="1">
                    <mxGeometry x="350" y="390" width="135" height="40" as="geometry"/>
                </mxCell>
            </root>
        </mxGraphModel>
    </diagram>
</mxfile>